<?xml version="1.0" encoding="utf-8"?>
<!-- Generator: Adobe Illustrator 21.0.0, SVG Export Plug-In . SVG Version: 6.00 Build 0)  -->
<svg version="1.1" id="Слой_1" xmlns="http://www.w3.org/2000/svg" xmlns:xlink="http://www.w3.org/1999/xlink" x="0px" y="0px"
	 viewBox="0 0 167 168" style="enable-background:new 0 0 167 168;" xml:space="preserve">
<style type="text/css">
	.st0{fill:none;stroke:#FFFFFF;stroke-width:9;stroke-miterlimit:10;}
	.st1{fill:#FFFFFF;}
</style>
<path class="st0" d="M5.5,83.5C5.5,40.1,40.6,5,84,5s78.5,35.1,78.5,78.5S127.4,162,84,162S5.5,126.9,5.5,83.5z"/>
<path class="st1" d="M105,77.4L74.3,46.7c-3.3-3.3-8.6-3.5-11.6-0.5c-1.4,1.4-2.1,3.2-2.2,5.1l0,0v64.4l0,0c0.1,1.8,0.8,3.6,2.2,4.9
	c3.1,3.1,8.3,2.8,11.6-0.5L105,89.4C108.3,86.2,108.3,80.8,105,77.4z"/>
</svg>
